<svg width="368" height="67" viewBox="0 0 368 67" fill="none" xmlns="http://www.w3.org/2000/svg">
<path d="M56.554 1.19059V66.0775H51.1964L16.6694 32.4435V64.8869H0.0012207V0H5.35885L39.8858 33.0388V1.19059H56.554Z" fill="#010101"/>
<path d="M89.8895 64.8861H73.2213V1.18976H89.8895V64.8861Z" fill="#010101"/>
<path d="M171.445 0V64.8869H154.777V38.0987L141.681 53.5764H136.323L123.227 38.0987V64.8869H106.558V0H111.916L139.002 33.0388L166.088 0H171.445Z" fill="#010101"/>
<path d="M239.307 46.1345C239.307 51.7898 237.223 56.2545 233.056 59.8262C228.889 63.398 223.829 65.1839 217.579 65.1839H187.814V1.18988H210.733C216.983 1.18988 222.043 2.97576 226.21 6.54752C230.377 10.1193 232.461 14.584 232.461 20.2393C232.461 24.4063 231.27 27.9781 228.592 30.9545C235.735 33.6333 239.307 38.6933 239.307 46.1345ZM203.887 15.1793V26.4898H209.84C211.923 26.4898 213.412 25.8945 214.602 25.0016C215.793 23.811 216.388 22.3228 216.388 20.8345C216.388 19.0487 215.793 17.8581 214.602 16.6675C213.412 15.7746 211.923 15.1793 209.84 15.1793H203.887ZM223.234 45.2416C223.234 41.3722 221.15 39.5863 216.983 39.5863H204.185V50.8968H216.983C220.853 50.8968 223.234 49.111 223.234 45.2416Z" fill="#010101"/>
<path d="M366.105 16.0722H338.424V25.0016H358.069V38.991H338.424V50.0039H367.296V64.8862H321.756V1.18988H366.105V16.0722Z" fill="#010101"/>
<path d="M312.528 64.8867C312.528 63.6961 312.528 62.5055 312.528 61.0173C312.528 58.9338 312.528 57.1479 312.528 55.0644C312.528 54.7667 312.528 54.4691 312.528 54.1714C308.957 54.1714 305.385 54.1714 301.813 54.1714C301.813 53.2785 301.813 52.3855 301.813 51.4926C301.813 50.5997 301.813 49.7067 301.813 48.8138C301.813 47.9208 301.813 47.0279 301.813 46.135C301.813 45.242 301.813 44.3491 301.813 43.4562C298.241 43.4562 294.67 43.4562 291.396 43.4562C291.396 39.8844 291.396 36.3126 291.396 32.7409C287.824 32.7409 284.252 32.7409 280.978 32.7409C280.978 29.1691 280.978 25.5974 280.978 22.0256C277.406 22.0256 273.834 22.0256 270.263 22.0256C270.263 20.2397 270.263 18.4538 270.263 16.668C270.263 14.8821 270.263 13.0962 270.263 11.3103C266.691 11.3103 263.119 11.3103 259.845 11.3103C259.845 7.73857 259.845 4.16681 259.845 0.8927C256.273 0.8927 252.702 0.8927 249.13 0.8927C249.13 1.19035 249.13 1.48799 249.13 1.78564C249.13 19.6444 249.13 37.8009 249.13 55.6597C249.13 58.3385 249.13 60.7196 249.13 63.3985C249.13 63.6961 249.129 64.701 249.129 64.9986L312.528 64.8867Z" fill="#7C8DFF"/>
</svg>
